<svg xmlns="http://www.w3.org/2000/svg" xmlns:xlink="http://www.w3.org/1999/xlink" width="24" height="24" viewBox="0 0 24 24">
  <defs>
    <clipPath id="clip-path">
      <path id="Tracé_214" data-name="Tracé 214" d="M24,0V24H0V0Z"/>
    </clipPath>
  </defs>
  <g id="baseline-copyright-24px" clip-path="url(#clip-path)">
    <path id="Tracé_213" data-name="Tracé 213" d="M10.08,10.86a2.557,2.557,0,0,1,.3-.87,1.749,1.749,0,0,1,.59-.62,1.775,1.775,0,0,1,.91-.23,1.813,1.813,0,0,1,.63.13,1.612,1.612,0,0,1,.52.36,1.926,1.926,0,0,1,.34.53,1.751,1.751,0,0,1,.14.64H15.3a3.58,3.58,0,0,0-.28-1.29,3,3,0,0,0-.7-1.01,3.266,3.266,0,0,0-1.08-.66,3.863,3.863,0,0,0-1.39-.23,3.908,3.908,0,0,0-1.7.34,3.439,3.439,0,0,0-1.2.92,3.759,3.759,0,0,0-.71,1.36A5.857,5.857,0,0,0,8,11.87v.27a5.855,5.855,0,0,0,.23,1.64,3.635,3.635,0,0,0,.71,1.35,3.414,3.414,0,0,0,1.2.91,4.058,4.058,0,0,0,1.7.34,3.814,3.814,0,0,0,1.32-.23,3.411,3.411,0,0,0,1.08-.63,3.052,3.052,0,0,0,.74-.94,2.692,2.692,0,0,0,.3-1.15H13.49a1.424,1.424,0,0,1-.15.58,1.472,1.472,0,0,1-.36.46,1.575,1.575,0,0,1-.52.3,1.986,1.986,0,0,1-.6.1,1.7,1.7,0,0,1-.89-.23,1.749,1.749,0,0,1-.59-.62,2.613,2.613,0,0,1-.3-.88,6.74,6.74,0,0,1-.08-1v-.27a6.663,6.663,0,0,1,.08-1.01ZM12,2A10,10,0,1,0,22,12,10,10,0,0,0,12,2Zm0,18a8,8,0,1,1,8-8A8.011,8.011,0,0,1,12,20Z"/>
  </g>
</svg>
