<svg id="baseline-sentiment_very_dissatisfied-24px" xmlns="http://www.w3.org/2000/svg" width="24" height="24" viewBox="0 0 24 24">
  <path id="Tracé_2221" data-name="Tracé 2221" d="M0,0H24V24H0Z" fill="none"/>
  <circle id="Ellipse_77" data-name="Ellipse 77" cx="1.5" cy="1.5" r="1.5" transform="translate(14 8)"/>
  <circle id="Ellipse_78" data-name="Ellipse 78" cx="1.5" cy="1.5" r="1.5" transform="translate(7 8)"/>
  <path id="Tracé_2222" data-name="Tracé 2222" d="M11.99,2A10,10,0,1,0,22,12,10,10,0,0,0,11.99,2ZM12,20a8,8,0,1,1,8-8A8,8,0,0,1,12,20Zm0-6a5.5,5.5,0,0,0-5.12,3.5H8.55a3.976,3.976,0,0,1,6.9,0h1.67A5.5,5.5,0,0,0,12,14Z"/>
</svg>
