<svg id="outline-chrome_reader_mode-24px" xmlns="http://www.w3.org/2000/svg" width="24" height="24" viewBox="0 0 24 24">
  <g id="Bounding_Boxes">
    <path id="Tracé_2310" data-name="Tracé 2310" d="M0,0H24V24H0Z" fill="none"/>
  </g>
  <g id="Outline">
    <g id="Groupe_44" data-name="Groupe 44">
      <path id="Tracé_2311" data-name="Tracé 2311" d="M21,4H3A2.006,2.006,0,0,0,1,6V19a2.006,2.006,0,0,0,2,2H21a2.006,2.006,0,0,0,2-2V6A2.006,2.006,0,0,0,21,4ZM3,19V6h8V19Zm18,0H13V6h8Z"/>
    </g>
    <rect id="Rectangle_23" data-name="Rectangle 23" width="6" height="1.5" transform="translate(14 9.5)"/>
    <rect id="Rectangle_24" data-name="Rectangle 24" width="6" height="1.5" transform="translate(14 12)"/>
    <rect id="Rectangle_25" data-name="Rectangle 25" width="6" height="1.5" transform="translate(14 14.5)"/>
  </g>
</svg>
