<svg xmlns="http://www.w3.org/2000/svg" width="44" height="44" viewBox="0 0 44 44">
  <path id="Pinterest_Circle" data-name="Pinterest Circle" d="M206,2752a22,22,0,1,1,22-22A22,22,0,0,1,206,2752Zm0-42a20,20,0,1,0,20,20A20,20,0,0,0,206,2710Zm7.564,20.537a9.371,9.371,0,0,1-1.375,2.711,6.008,6.008,0,0,1-3.536,2.138,4.183,4.183,0,0,1-3.306-.671,1.461,1.461,0,0,1-.622-.669h-.033a8.155,8.155,0,0,1-.425,1.6c-.214.675-.256,1.377-.524,2.009a12.467,12.467,0,0,1-1.048,1.946c-.2.314-.768,1.391-1.178,1.4a.415.415,0,0,1-.066-.255c-.132-.2-.04-.529-.1-.8a4.6,4.6,0,0,1-.065-1.594v-.67c.106-.46.1-.931.229-1.371.278-.959.433-1.975.72-2.966.276-.954.53-2,.753-2.967a4.106,4.106,0,0,0-.295-1.084,4.13,4.13,0,0,1,.2-2.329c.305-.7,1.2-1.774,2.357-1.5a1.8,1.8,0,0,1,1.211,2.359c-.328,1.255-.753,2.38-1.047,3.636a1.513,1.513,0,0,0,.13.862,1.893,1.893,0,0,0,2.226,1.116c1.69-.4,2.437-1.833,2.947-3.381.137-.418.121-.814.229-1.276a6.1,6.1,0,0,0-.2-3.189,4.305,4.305,0,0,0-2.848-2.424l-1.112-.191a6.1,6.1,0,0,0-2.227.191,5.4,5.4,0,0,0-4.19,5.1l-.033.288a5.444,5.444,0,0,0,.459,1.722c.147.263.5.47.556.8a1.622,1.622,0,0,1-.164.638,3.31,3.31,0,0,1-.163.7c-.213.364-.793.091-1.048-.063a5.032,5.032,0,0,1-1.8-5.359,7.644,7.644,0,0,1,.229-.956,8.172,8.172,0,0,1,3.732-4.115,9.106,9.106,0,0,1,2.324-.766l1.277-.159c3.988-.057,6.485,1.458,7.66,4.114a6.711,6.711,0,0,1,.492,3.828C213.767,2729.477,213.732,2730.034,213.564,2730.537Z" transform="translate(-184 -2708)" fill="#fff" fill-rule="evenodd"/>
</svg>
